<mxfile host="app.diagrams.net" modified="2023-06-20T00:10:00.629Z" agent="Mozilla/5.0 (Windows NT 10.0; Win64; x64) AppleWebKit/537.36 (KHTML, like Gecko) Chrome/114.0.0.0 Safari/537.36 Edg/114.0.1823.43" version="21.5.0" etag="x8SQNG6orV8CB3AdkXEZ" type="github">
  <diagram name="Page-1" id="PcT6zI2UWPXC1lyq-hj7">
    <mxGraphModel>
      <root>
        <mxCell id="0" />
        <mxCell id="1" parent="0" />
      </root>
    </mxGraphModel>
  </diagram>
</mxfile>
